# xmcd
#
# Track frame offsets: 
#        150
#        15407
#        34215
#        56670
#        72200
#        90575
#        106700
#        122565
#        137360
#        151180
#        169167
#        181687
#        197670
#        213140
#        229485
#        245240
#        261184
#        276885
#
# Disc length: 3874 seconds
#
# Revision: 1
# Processed by: cddbd v1.4PL0 Copyright (c) Steve Scherf et al.
# Submitted via: ExactAudioCopy v0.90b4
#
DISCID=f00f2012
DTITLE=Ed Bruce - The Best Of Ed Bruce
DYEAR=1900
DGENRE=Country
TTITLE0=Mamas Don't Let Your Babies Grow Up To Be Cowboys
TTITLE1=Diane
TTITLE2=The Last Cowboy Song (With Willie Nelson)
TTITLE3=Girls, Women and Ladies
TTITLE4=Evil Angel
TTITLE5=(When You Fall In Love) Everything's A Waltz
TTITLE6=You're The Best Break This Old Heart Ever Had
TTITLE7=Love's Found You And Me
TTITLE8=Ever, Never Lovin' You
TTITLE9=My First Taste Of Texas
TTITLE10=Theme From Bret Maverick
TTITLE11=You're Not Leavin' Here Tonight
TTITLE12=If It Was Easy
TTITLE13=After All
TTITLE14=Tell 'em I've Gone Crazy
TTITLE15=You Turn Me On (Like A Radio)
TTITLE16=When Giving Up Was Easy
TTITLE17=Nights
EXTD=
EXTT0=
EXTT1=
EXTT2=
EXTT3=
EXTT4=
EXTT5=
EXTT6=
EXTT7=
EXTT8=
EXTT9=
EXTT10=
EXTT11=
EXTT12=
EXTT13=
EXTT14=
EXTT15=
EXTT16=
EXTT17=
PLAYORDER=
